<svg width="40" height="40" viewBox="0 0 40 40" fill="none" xmlns="http://www.w3.org/2000/svg">
<g id="Frame" clip-path="url(#clip0_2222_620)">
<g id="Group">
<path id="Vector" d="M20 0C8.95469 0 0 8.95469 0 20C0 31.0453 8.95469 40 20 40C31.0453 40 40 31.0453 40 20C40 8.95469 31.0453 0 20 0Z" fill="white"/>
<path id="Vector_2" d="M22.1883 18.1896L30.75 8.2373H28.7212L21.287 16.8788L15.3494 8.2373H8.50098L17.4799 21.3048L8.50098 31.7413H10.53L18.3807 22.6156L24.6512 31.7413H31.4996L22.1878 18.1896H22.1883ZM11.261 9.76471H14.3774L28.7221 30.2834H25.6057L11.261 9.76471Z" fill="#020812"/>
</g>
</g>
<defs>
<clipPath id="clip0_2222_620">
<rect width="40" height="40" fill="white"/>
</clipPath>
</defs>
</svg>
